<svg id="Layer_1" data-name="Layer 1" xmlns="http://www.w3.org/2000/svg" xmlns:xlink="http://www.w3.org/1999/xlink" viewBox="0 0 276.53 63.96"><defs><style>.cls-1{fill:#acacac;}.cls-2{fill:url(#linear-gradient);}.cls-3{fill:url(#linear-gradient-2);}.cls-4{fill:url(#linear-gradient-3);}.cls-5{fill:url(#linear-gradient-4);}.cls-6{fill:url(#linear-gradient-5);}.cls-7{fill:url(#linear-gradient-6);}.cls-8{fill:url(#linear-gradient-7);}.cls-9{fill:#0070ba;}.cls-10{fill:#86a315;}.cls-11{fill:url(#linear-gradient-8);}.cls-12{fill:url(#linear-gradient-9);}</style><linearGradient id="linear-gradient" x1="110.75" y1="150.57" x2="110.75" y2="122.21" gradientUnits="userSpaceOnUse"><stop offset="0" stop-color="#0070ba"/><stop offset="0.14" stop-color="#0766b1"/><stop offset="0.62" stop-color="#1e4895"/><stop offset="1" stop-color="#1e4895"/></linearGradient><linearGradient id="linear-gradient-2" x1="52.72" y1="150.56" x2="52.72" y2="122.34" xlink:href="#linear-gradient"/><linearGradient id="linear-gradient-3" x1="132.2" y1="150.55" x2="132.2" y2="114.75" xlink:href="#linear-gradient"/><linearGradient id="linear-gradient-4" x1="16.72" y1="151.52" x2="16.72" y2="112.31" xlink:href="#linear-gradient"/><linearGradient id="linear-gradient-5" x1="231.42" y1="150.56" x2="231.42" y2="122.34" xlink:href="#linear-gradient"/><linearGradient id="linear-gradient-6" x1="248.18" y1="150.56" x2="248.18" y2="109.91" xlink:href="#linear-gradient"/><linearGradient id="linear-gradient-7" x1="164.16" y1="150.71" x2="164.16" y2="122.2" xlink:href="#linear-gradient"/><linearGradient id="linear-gradient-8" x1="86.65" y1="151.08" x2="86.65" y2="122.24" xlink:href="#linear-gradient"/><linearGradient id="linear-gradient-9" x1="267.67" y1="150.55" x2="267.67" y2="109.75" xlink:href="#linear-gradient"/></defs><path class="cls-1" d="M29.35,169l1-8.57a3.89,3.89,0,0,0,0-.53.89.89,0,0,0-.83-.94c-.33-.06-.5-.15-.5-.25s.09-.18.27-.18a6.71,6.71,0,0,1,.71,0c.57.06,1.67.08,3.29.08s2.65,0,3.36-.09l.7,0c.17,0,.25.07.25.22l0,.86,0,1.32c0,.19-.07.29-.21.29s-.22-.12-.23-.36c0-.65-.21-1.07-.53-1.26a5,5,0,0,0-2.08-.28h-.71l-1.59,0a.81.81,0,0,0-.47.09.88.88,0,0,0-.16.49l-.46,3.83a.59.59,0,0,0,0,.17c0,.13.12.19.38.19h2.45A1.34,1.34,0,0,0,35.53,163c0-.14.11-.21.2-.22s.18.07.18.22a4.16,4.16,0,0,1-.12.84,12.73,12.73,0,0,0-.16,1.57,6.93,6.93,0,0,1-.09.84c0,.13-.09.19-.18.19s-.18-.08-.18-.23v-.4c0-.64-.46-1-1.38-1h-2.1a1.11,1.11,0,0,0-.49.06c-.06,0-.1.15-.13.35L30.61,169a1.48,1.48,0,0,0,0,.21.57.57,0,0,0,.27.56,3.11,3.11,0,0,0,1.15.13q3.88,0,4.8-1.41c.15-.22.27-.32.37-.32s.16.06.16.19a1.91,1.91,0,0,1-.27.79,5.62,5.62,0,0,1-.63.91,1.9,1.9,0,0,1-.71.51,3.57,3.57,0,0,1-1.1.12c-.25,0-.76,0-1.54-.07-.57,0-1.12-.06-1.66-.06s-1.18,0-1.7.07-.92.06-1.22.06-.33-.06-.33-.18.11-.17.32-.23a1,1,0,0,0,.61-.33A2.94,2.94,0,0,0,29.35,169Z" transform="translate(-3.47 -109.75)"/><path class="cls-1" d="M40.56,165.22a4.93,4.93,0,0,1,1.35-1.28,2.72,2.72,0,0,1,1.45-.47,1.07,1.07,0,0,1,.91.56,2.6,2.6,0,0,1,.37,1.42c0,.33,0,.75-.07,1.27l-.2,2.29c0,.06,0,.12,0,.17,0,.31.09.46.26.46a1.1,1.1,0,0,0,.84-.59c.12-.18.23-.27.32-.27s.16.06.15.18a1.84,1.84,0,0,1-.74,1.11,2.08,2.08,0,0,1-1.23.64c-.41,0-.62-.39-.62-1.17,0-.17,0-.41,0-.72l.22-2.7c0-.12,0-.25,0-.4a1.93,1.93,0,0,0-.26-1.09.77.77,0,0,0-.69-.41,1.54,1.54,0,0,0-1.29.91,6.28,6.28,0,0,0-.74,2.46l-.34,2.67a.5.5,0,0,1-.15.35.84.84,0,0,1-.46.09c-.3,0-.44-.1-.43-.29l0-.16.28-2.28c0-.35.08-.71.13-1.05a11.59,11.59,0,0,0,.12-1.38c0-.58-.13-.86-.39-.86a.57.57,0,0,0-.36.21,1.37,1.37,0,0,0-.3.48c-.08.22-.16.33-.25.33s-.18-.08-.18-.25a2.16,2.16,0,0,1,.53-1.28c.35-.45.68-.68,1-.68a.59.59,0,0,1,.52.38,2.22,2.22,0,0,1,.2,1Z" transform="translate(-3.47 -109.75)"/><path class="cls-1" d="M51.25,168.76c-1,1.33-2.07,2-3.15,2a1.3,1.3,0,0,1-1.05-.5,1.87,1.87,0,0,1-.41-1.27,5.69,5.69,0,0,1,.49-2.22,7,7,0,0,1,1.28-2,3.39,3.39,0,0,1,2.46-1.26,3.12,3.12,0,0,1,1,.17,1.1,1.1,0,0,0,.31.06c.18,0,.39-.2.64-.61.13-.2.22-.3.3-.29s.11.06.11.16a.4.4,0,0,1,0,.15l-.12.5-.2,1q-.18.82-.36,2.13a15.43,15.43,0,0,0-.18,1.77c0,.73.12,1.1.35,1.1a.77.77,0,0,0,.45-.29,2.28,2.28,0,0,0,.43-.63c.08-.19.17-.29.26-.29s.15.06.15.18a2.19,2.19,0,0,1-.7,1.35c-.46.52-.86.78-1.19.78a.54.54,0,0,1-.51-.4A6.35,6.35,0,0,1,51.25,168.76Zm-.38-4.91a2.34,2.34,0,0,0-1.77,1.06,6.34,6.34,0,0,0-1,1.76,5.8,5.8,0,0,0-.38,1.89q0,1.32,1.17,1.32a2.18,2.18,0,0,0,1.52-.8,3.08,3.08,0,0,0,.89-1.69c0-.33.08-.61.13-.83l.16-.79c.1-.44.17-.74.21-.89a1.92,1.92,0,0,0,.06-.44c0-.15-.11-.28-.32-.4A1.39,1.39,0,0,0,50.87,163.85Z" transform="translate(-3.47 -109.75)"/><path class="cls-1" d="M56.89,165.19a4.28,4.28,0,0,1,1.3-1.34,2.76,2.76,0,0,1,1.55-.47,1.65,1.65,0,0,1,1.32.6,2.38,2.38,0,0,1,.51,1.58,5.68,5.68,0,0,1-1.19,3.34,4.88,4.88,0,0,1-1.44,1.36,3.19,3.19,0,0,1-1.65.5,2.13,2.13,0,0,1-1.37-.4,1.3,1.3,0,0,1-.5-1.08,7,7,0,0,1,.06-.89l1.09-8.91c0-.26,0-.42,0-.48s-.16-.3-.47-.3h-.42c-.24,0-.35-.06-.35-.17s.12-.2.35-.21a9.93,9.93,0,0,0,1.41-.15,2,2,0,0,1,.41-.06c.12,0,.17.07.17.21a.34.34,0,0,1,0,.1Zm-.25,2.08-.16,1.36a3.86,3.86,0,0,0,0,.58,1,1,0,0,0,1.08,1.08,2.6,2.6,0,0,0,2-1.29,4.65,4.65,0,0,0,1-2.78,2.29,2.29,0,0,0-.4-1.43,1.29,1.29,0,0,0-1.1-.52,1.91,1.91,0,0,0-1.55.79A4.45,4.45,0,0,0,56.64,167.27Z" transform="translate(-3.47 -109.75)"/><path class="cls-1" d="M63.13,168.46l1.1-9c0-.25,0-.4,0-.47s-.15-.31-.49-.31h-.45c-.24,0-.36-.06-.36-.17s.13-.21.36-.21a12.24,12.24,0,0,0,1.47-.15,1.91,1.91,0,0,1,.41-.06c.11,0,.16.07.16.21v.1l-1.23,10.23a3.74,3.74,0,0,0,0,.48c0,.33.11.49.33.49a1,1,0,0,0,.63-.3,3.07,3.07,0,0,0,.59-.79c.06-.13.13-.19.2-.19s.18.06.18.19a1.47,1.47,0,0,1-.21.52,5.84,5.84,0,0,1-.43.66,3.29,3.29,0,0,1-.79.7,1.52,1.52,0,0,1-.76.29c-.51,0-.77-.48-.77-1.44A5.93,5.93,0,0,1,63.13,168.46Z" transform="translate(-3.47 -109.75)"/><path class="cls-1" d="M67.61,167l.37-2.19a2.37,2.37,0,0,0,0-.43c0-.24-.18-.35-.52-.35H67c-.26,0-.38-.06-.38-.18s.13-.21.38-.21a7.94,7.94,0,0,0,1.56-.15,2.32,2.32,0,0,1,.45-.05c.13,0,.19.07.19.21v.1l-.49,2.43a14.59,14.59,0,0,0-.37,2.75c0,.35.09.53.28.55s.52-.23.78-.74c.07-.13.14-.2.21-.2s.14.06.13.19a2.12,2.12,0,0,1-.67,1.25,1.76,1.76,0,0,1-1.15.69c-.18,0-.32-.13-.43-.39a2.66,2.66,0,0,1-.17-1A15.22,15.22,0,0,1,67.61,167Zm1.52-7.17c.05,0,.1.06.15.16s.15.29.17.32l.2.29a.36.36,0,0,1,.08.17c0,.06,0,.12-.13.21s-.29.31-.47.53-.14.14-.2.14-.13-.06-.19-.17a3.29,3.29,0,0,0-.32-.57.32.32,0,0,1-.08-.19.31.31,0,0,1,.08-.19l.25-.26a2.46,2.46,0,0,0,.23-.29A.37.37,0,0,1,69.13,159.86Z" transform="translate(-3.47 -109.75)"/><path class="cls-1" d="M73.3,165.22a4.93,4.93,0,0,1,1.35-1.28,2.69,2.69,0,0,1,1.44-.47A1.09,1.09,0,0,1,77,164a2.6,2.6,0,0,1,.36,1.42c0,.33,0,.75-.06,1.27l-.2,2.29a1,1,0,0,0,0,.17c0,.31.09.46.26.46a1.1,1.1,0,0,0,.84-.59c.12-.18.23-.27.32-.27s.16.06.15.18a1.89,1.89,0,0,1-.74,1.11,2.08,2.08,0,0,1-1.23.64c-.41,0-.62-.39-.62-1.17q0-.25,0-.72l.22-2.7c0-.12,0-.25,0-.4a2,2,0,0,0-.26-1.09.77.77,0,0,0-.69-.41,1.53,1.53,0,0,0-1.29.91,6.12,6.12,0,0,0-.74,2.46L73,170.26a.5.5,0,0,1-.15.35.86.86,0,0,1-.46.09c-.3,0-.45-.1-.43-.29v-.16l.29-2.28c0-.35.08-.71.13-1.05a11.59,11.59,0,0,0,.12-1.38c0-.58-.13-.86-.4-.86a.56.56,0,0,0-.35.21,1.57,1.57,0,0,0-.31.48q-.11.33-.24.33c-.12,0-.18-.08-.18-.25a2.16,2.16,0,0,1,.53-1.28c.35-.45.68-.68,1-.68a.6.6,0,0,1,.52.38,2.22,2.22,0,0,1,.2,1Z" transform="translate(-3.47 -109.75)"/><path class="cls-1" d="M84,164a3.53,3.53,0,0,1,.47,1.65,3,3,0,0,1-.69,2,2.13,2.13,0,0,1-1.69.84,2.42,2.42,0,0,1-.78-.15l-.18,0c-.25,0-.38.17-.38.51s.37.76,1.1,1l1.39.45c1.11.35,1.67.92,1.67,1.71a1.41,1.41,0,0,1-.74,1.24,3.45,3.45,0,0,1-1.93.47,4.49,4.49,0,0,1-2.4-.56,1.68,1.68,0,0,1-.91-1.48,1.52,1.52,0,0,1,.41-1.09,1.91,1.91,0,0,1,1.16-.53,1.39,1.39,0,0,1-.28-.87,1.22,1.22,0,0,1,.44-.92c.06,0,.08-.07.08-.1l-.06-.12a3,3,0,0,1,0-3.82,2.11,2.11,0,0,1,1.64-.81,4.62,4.62,0,0,1,.9.14,3.2,3.2,0,0,0,.81.15,1.86,1.86,0,0,0,.73-.14l.4-.15a.57.57,0,0,1,.24-.06.31.31,0,0,1,.23.12.45.45,0,0,1,.12.26.47.47,0,0,1-.2.39.79.79,0,0,1-.48.16A3.59,3.59,0,0,1,84,164Zm-3.32,6.26a1.24,1.24,0,0,0-.72.42,1.16,1.16,0,0,0-.27.78,1.62,1.62,0,0,0,.66,1.32,2.67,2.67,0,0,0,1.68.51,3.1,3.1,0,0,0,1.41-.27.84.84,0,0,0,.53-.74c0-.44-.41-.81-1.22-1.1l-1.14-.43A3.14,3.14,0,0,1,80.66,170.29Zm1.68-6.54a1.12,1.12,0,0,0-1,.72A3.82,3.82,0,0,0,81,166.3a2.46,2.46,0,0,0,.31,1.34.93.93,0,0,0,.82.5,1.2,1.2,0,0,0,1-.71,3.76,3.76,0,0,0,.4-1.81,2.5,2.5,0,0,0-.33-1.35A1,1,0,0,0,82.34,163.75Z" transform="translate(-3.47 -109.75)"/><path class="cls-1" d="M91.84,169l1-8.57a4.34,4.34,0,0,0,0-.53.89.89,0,0,0-.83-.94c-.34-.06-.51-.15-.51-.25s.09-.18.28-.18a4.19,4.19,0,0,1,.69.08,5.89,5.89,0,0,0,.69,0c.23,0,.67,0,1.33-.07s1.29-.06,1.9-.06a5.74,5.74,0,0,1,4.15,1.38,4.47,4.47,0,0,1,1.36,3.36,7.74,7.74,0,0,1-3.25,6.3,6.15,6.15,0,0,1-1.9.86,10.46,10.46,0,0,1-2.51.26c-.5,0-1,0-1.48-.07s-.62-.06-.75-.06a3.05,3.05,0,0,0-.55.06c-.27,0-.45.07-.54.07s-.32-.06-.32-.18.1-.17.3-.23a.94.94,0,0,0,.79-.83Zm2.35-8.76-1.08,8.81a3.74,3.74,0,0,0,0,.48.53.53,0,0,0,.23.52,2.61,2.61,0,0,0,1,.12,8.39,8.39,0,0,0,2.29-.26,4.43,4.43,0,0,0,1.64-.9,6.16,6.16,0,0,0,1.7-2.48,8.52,8.52,0,0,0,.68-3.27A4,4,0,0,0,99,159.88a5,5,0,0,0-3-.81,2.92,2.92,0,0,0-1.36.19A1.4,1.4,0,0,0,94.19,160.25Z" transform="translate(-3.47 -109.75)"/><path class="cls-1" d="M103.84,167l.37-2.19a2.37,2.37,0,0,0,.05-.43c0-.24-.18-.35-.52-.35h-.48c-.26,0-.39-.06-.38-.18s.13-.21.38-.21a7.94,7.94,0,0,0,1.56-.15,2.32,2.32,0,0,1,.45-.05q.18,0,.18.21v.1l-.49,2.43a14.59,14.59,0,0,0-.37,2.75c0,.35.09.53.27.55s.53-.23.79-.74c.06-.13.13-.2.21-.2s.14.06.13.19a2.09,2.09,0,0,1-.68,1.25,1.74,1.74,0,0,1-1.14.69c-.18,0-.32-.13-.43-.39a2.48,2.48,0,0,1-.17-1A15.22,15.22,0,0,1,103.84,167Zm1.51-7.17c.06,0,.11.06.15.16l.18.32.2.29a.36.36,0,0,1,.08.17c0,.06,0,.12-.14.21s-.28.31-.47.53-.13.14-.19.14-.13-.06-.19-.17a2.69,2.69,0,0,0-.33-.57.41.41,0,0,1-.08-.19.28.28,0,0,1,.09-.19l.25-.26a2.46,2.46,0,0,0,.23-.29C105.22,159.91,105.29,159.86,105.35,159.86Z" transform="translate(-3.47 -109.75)"/><path class="cls-1" d="M111.74,164a3.65,3.65,0,0,1,.47,1.65,3,3,0,0,1-.7,2,2.1,2.1,0,0,1-1.68.84,2.43,2.43,0,0,1-.79-.15l-.17,0c-.26,0-.38.17-.38.51s.36.76,1.1,1l1.39.45c1.11.35,1.66.92,1.66,1.71a1.4,1.4,0,0,1-.73,1.24,3.47,3.47,0,0,1-1.93.47,4.44,4.44,0,0,1-2.4-.56,1.69,1.69,0,0,1-.92-1.48,1.49,1.49,0,0,1,.42-1.09,1.88,1.88,0,0,1,1.15-.53,1.39,1.39,0,0,1-.28-.87,1.2,1.2,0,0,1,.45-.92s.08-.07.08-.1l-.06-.12a2.83,2.83,0,0,1-.65-1.9,2.86,2.86,0,0,1,.7-1.92,2.09,2.09,0,0,1,1.63-.81,4.62,4.62,0,0,1,.9.14,3.35,3.35,0,0,0,.81.15,1.83,1.83,0,0,0,.73-.14l.4-.15a.61.61,0,0,1,.25-.06.31.31,0,0,1,.23.12.38.38,0,0,1,.11.26.46.46,0,0,1-.19.39.82.82,0,0,1-.49.16A3.54,3.54,0,0,1,111.74,164Zm-3.32,6.26a1.3,1.3,0,0,0-.73.42,1.2,1.2,0,0,0-.26.78,1.62,1.62,0,0,0,.66,1.32,2.63,2.63,0,0,0,1.68.51,3.16,3.16,0,0,0,1.41-.27.84.84,0,0,0,.53-.74c0-.44-.41-.81-1.23-1.1l-1.14-.43A3.21,3.21,0,0,1,108.42,170.29Zm1.67-6.54a1.14,1.14,0,0,0-1,.72,3.82,3.82,0,0,0-.38,1.83,2.56,2.56,0,0,0,.3,1.34,1,1,0,0,0,.83.5,1.18,1.18,0,0,0,1-.71,3.65,3.65,0,0,0,.4-1.81,2.5,2.5,0,0,0-.33-1.35A1,1,0,0,0,110.09,163.75Z" transform="translate(-3.47 -109.75)"/><path class="cls-1" d="M114.64,167l.37-2.19a2.37,2.37,0,0,0,0-.43c0-.24-.18-.35-.52-.35h-.48c-.26,0-.38-.06-.38-.18s.13-.21.38-.21a7.94,7.94,0,0,0,1.56-.15,2.32,2.32,0,0,1,.45-.05c.12,0,.19.07.19.21v.1l-.49,2.43a14.59,14.59,0,0,0-.37,2.75c0,.35.09.53.28.55s.52-.23.78-.74c.06-.13.13-.2.21-.2s.14.06.13.19a2.09,2.09,0,0,1-.68,1.25,1.72,1.72,0,0,1-1.14.69c-.18,0-.32-.13-.43-.39a2.66,2.66,0,0,1-.17-1A15.22,15.22,0,0,1,114.64,167Zm1.52-7.17s.1.06.15.16.15.29.17.32l.2.29a.36.36,0,0,1,.08.17c0,.06-.05.12-.13.21s-.29.31-.47.53-.14.14-.2.14-.13-.06-.19-.17a3.29,3.29,0,0,0-.32-.57.32.32,0,0,1-.08-.19.31.31,0,0,1,.08-.19l.25-.26a2.46,2.46,0,0,0,.23-.29A.37.37,0,0,1,116.16,159.86Z" transform="translate(-3.47 -109.75)"/><path class="cls-1" d="M120.39,164.59l-.46,3.56c0,.16,0,.34,0,.53a1.14,1.14,0,0,0,.21.7.64.64,0,0,0,.53.29,1.69,1.69,0,0,0,1.18-.66.46.46,0,0,1,.28-.17.12.12,0,0,1,.14.14c0,.32-.27.69-.82,1.1a2.54,2.54,0,0,1-1.45.62.93.93,0,0,1-.81-.47,2.14,2.14,0,0,1-.31-1.22,8.25,8.25,0,0,1,.06-.87l.41-3.36c0-.14,0-.24.06-.33v-.11c0-.13-.1-.19-.3-.19h-.49c-.13,0-.2-.06-.2-.16s.12-.24.37-.37a4.13,4.13,0,0,0,1.53-1.43c.1-.15.2-.23.3-.23s.2.06.2.17a.69.69,0,0,1-.06.24l-.08.34-.07.29,0,.23a.74.74,0,0,0,0,.12q0,.21.36.21H121l1.21,0c.2,0,.3.08.3.23s-.15.39-.45.39L121,164.1h-.12a.47.47,0,0,0-.33.09A.69.69,0,0,0,120.39,164.59Z" transform="translate(-3.47 -109.75)"/><path class="cls-1" d="M127.78,168.76c-1,1.33-2.07,2-3.15,2a1.3,1.3,0,0,1-1-.5,1.87,1.87,0,0,1-.41-1.27,5.69,5.69,0,0,1,.49-2.22,7,7,0,0,1,1.28-2,3.39,3.39,0,0,1,2.46-1.26,3.12,3.12,0,0,1,1,.17,1.1,1.1,0,0,0,.32.06c.17,0,.38-.2.63-.61.13-.2.23-.3.3-.29s.11.06.11.16a.4.4,0,0,1,0,.15l-.12.5-.2,1q-.18.82-.36,2.13a15.43,15.43,0,0,0-.18,1.77c0,.73.12,1.1.35,1.1s.27-.1.45-.29a2.28,2.28,0,0,0,.43-.63c.08-.19.17-.29.26-.29s.15.06.15.18a2.19,2.19,0,0,1-.7,1.35c-.46.52-.86.78-1.19.78a.54.54,0,0,1-.51-.4A6.9,6.9,0,0,1,127.78,168.76Zm-.38-4.91a2.34,2.34,0,0,0-1.77,1.06,6.34,6.34,0,0,0-.95,1.76,5.8,5.8,0,0,0-.38,1.89q0,1.32,1.17,1.32a2.18,2.18,0,0,0,1.52-.8,3,3,0,0,0,.89-1.69c0-.33.08-.61.13-.83l.16-.79c.1-.44.17-.74.21-.89a1.92,1.92,0,0,0,.06-.44c0-.15-.1-.28-.32-.4A1.39,1.39,0,0,0,127.4,163.85Z" transform="translate(-3.47 -109.75)"/><path class="cls-1" d="M132.06,168.46l1.1-9c0-.25,0-.4.05-.47s-.15-.31-.49-.31h-.45c-.24,0-.36-.06-.36-.17s.13-.21.36-.21a12,12,0,0,0,1.47-.15,1.91,1.91,0,0,1,.41-.06c.11,0,.16.07.16.21v.1l-1.23,10.23a3.74,3.74,0,0,0,0,.48c0,.33.11.49.33.49a1,1,0,0,0,.63-.3,3.07,3.07,0,0,0,.59-.79c.06-.13.13-.19.2-.19a.17.17,0,0,1,.19.19,1.58,1.58,0,0,1-.22.52,5.84,5.84,0,0,1-.43.66,3.29,3.29,0,0,1-.79.7,1.52,1.52,0,0,1-.76.29c-.51,0-.77-.48-.77-1.44A5.93,5.93,0,0,1,132.06,168.46Z" transform="translate(-3.47 -109.75)"/><path class="cls-1" d="M141.51,169l1-8.57a3.89,3.89,0,0,0,0-.53.89.89,0,0,0-.83-.94c-.33-.06-.5-.15-.5-.25s.09-.18.27-.18a6.71,6.71,0,0,1,.71,0c.57.06,1.67.08,3.29.08s2.65,0,3.36-.09l.7,0c.17,0,.25.07.25.22l0,.86,0,1.32c0,.19-.07.29-.21.29s-.22-.12-.23-.36a1.5,1.5,0,0,0-.53-1.26,5,5,0,0,0-2.08-.28h-.71l-1.59,0a.81.81,0,0,0-.47.09.88.88,0,0,0-.16.49l-.46,3.83a.59.59,0,0,0,0,.17c0,.13.12.19.38.19h2.45a1.34,1.34,0,0,0,1.46-1.08c0-.14.11-.21.2-.22s.18.07.18.22a4.16,4.16,0,0,1-.12.84,11,11,0,0,0-.16,1.57,6.93,6.93,0,0,1-.09.84c0,.13-.09.19-.18.19s-.18-.08-.18-.23v-.4c0-.64-.46-1-1.38-1h-2.1a1.11,1.11,0,0,0-.49.06c-.06,0-.1.15-.13.35l-.46,3.77a1.48,1.48,0,0,0,0,.21.57.57,0,0,0,.27.56,3.11,3.11,0,0,0,1.15.13q3.88,0,4.8-1.41c.15-.22.27-.32.37-.32s.16.06.16.19a1.91,1.91,0,0,1-.27.79,5.1,5.1,0,0,1-.64.91,1.8,1.8,0,0,1-.7.51,3.57,3.57,0,0,1-1.1.12c-.25,0-.76,0-1.54-.07-.57,0-1.12-.06-1.66-.06s-1.18,0-1.7.07-.92.06-1.22.06-.33-.06-.33-.18.11-.17.32-.23a1,1,0,0,0,.61-.33A2.94,2.94,0,0,0,141.51,169Z" transform="translate(-3.47 -109.75)"/><path class="cls-1" d="M155.08,164.9l-.52-.54a1.22,1.22,0,0,0-.89-.43,1.8,1.8,0,0,0-1.55,1,4.53,4.53,0,0,0-.62,2.47,2.94,2.94,0,0,0,.51,1.84,1.79,1.79,0,0,0,1.47.65,2.4,2.4,0,0,0,1.62-.61l.33-.28a.21.21,0,0,1,.15-.07c.07,0,.1,0,.1.1a1.2,1.2,0,0,1-.38.64,3.29,3.29,0,0,1-2.54,1.1,2.12,2.12,0,0,1-1.7-.71,2.94,2.94,0,0,1-.61-2,5,5,0,0,1,1.13-3.24,3.24,3.24,0,0,1,2.56-1.41,2.42,2.42,0,0,1,1.25.31c.36.21.54.45.54.73a.62.62,0,0,1-.16.43.47.47,0,0,1-.37.18A.43.43,0,0,1,155.08,164.9Z" transform="translate(-3.47 -109.75)"/><path class="cls-1" d="M160.25,163.41a2.38,2.38,0,0,1,1.87.78,3,3,0,0,1,.7,2.09,5,5,0,0,1-1,3.17,3.15,3.15,0,0,1-2.52,1.31,2.3,2.3,0,0,1-1.83-.83,3.3,3.3,0,0,1-.7-2.16,5.28,5.28,0,0,1,.41-2,4.45,4.45,0,0,1,1.05-1.58A2.92,2.92,0,0,1,160.25,163.41Zm0,.43a2,2,0,0,0-1.68,1.13,5.45,5.45,0,0,0-.68,2.82c0,1.64.51,2.47,1.51,2.47.6,0,1.13-.41,1.57-1.21a6,6,0,0,0,.65-2.91C161.64,164.61,161.19,163.84,160.27,163.84Z" transform="translate(-3.47 -109.75)"/><path class="cls-1" d="M166.17,165.22a5,5,0,0,1,1.36-1.28,2.66,2.66,0,0,1,1.44-.47,1.07,1.07,0,0,1,.91.56,2.52,2.52,0,0,1,.37,1.42c0,.33,0,.75-.07,1.27L170,169a1,1,0,0,0,0,.17c0,.31.08.46.25.46a1.1,1.1,0,0,0,.85-.59c.12-.18.22-.27.32-.27s.15.06.15.18a1.87,1.87,0,0,1-.75,1.11,2,2,0,0,1-1.22.64q-.63,0-.63-1.17c0-.17,0-.41,0-.72l.22-2.7c0-.12,0-.25,0-.4a2,2,0,0,0-.26-1.09.79.79,0,0,0-.69-.41,1.55,1.55,0,0,0-1.3.91,6.28,6.28,0,0,0-.74,2.46l-.34,2.67a.43.43,0,0,1-.15.35.81.81,0,0,1-.46.09c-.3,0-.44-.1-.43-.29l0-.16.28-2.28c0-.35.09-.71.13-1.05a10.14,10.14,0,0,0,.13-1.38c0-.58-.13-.86-.4-.86a.57.57,0,0,0-.36.21,1.54,1.54,0,0,0-.3.48c-.08.22-.16.33-.25.33s-.17-.08-.17-.25a2.14,2.14,0,0,1,.52-1.28c.35-.45.68-.68,1-.68a.59.59,0,0,1,.51.38,2.1,2.1,0,0,1,.2,1Z" transform="translate(-3.47 -109.75)"/><path class="cls-1" d="M175.94,163.41a2.39,2.39,0,0,1,1.87.78,3,3,0,0,1,.69,2.09,4.9,4.9,0,0,1-1,3.17,3.12,3.12,0,0,1-2.52,1.31,2.28,2.28,0,0,1-1.82-.83,3.24,3.24,0,0,1-.7-2.16,5.28,5.28,0,0,1,.41-2,4.31,4.31,0,0,1,1-1.58A2.94,2.94,0,0,1,175.94,163.41Zm0,.43a2,2,0,0,0-1.68,1.13,5.45,5.45,0,0,0-.68,2.82c0,1.64.5,2.47,1.5,2.47.61,0,1.13-.41,1.57-1.21a6,6,0,0,0,.66-2.91C177.33,164.61,176.87,163.84,176,163.84Z" transform="translate(-3.47 -109.75)"/><path class="cls-1" d="M181.82,165.27a5.14,5.14,0,0,1,1.35-1.33,2.8,2.8,0,0,1,1.48-.47q1.11,0,1.11,1.47v.33A5.26,5.26,0,0,1,187,164a2.3,2.3,0,0,1,1.3-.48,1.16,1.16,0,0,1,1,.52,2.45,2.45,0,0,1,.37,1.41c0,.22,0,.43,0,.65l-.21,2.82,0,.37,0,.17a.29.29,0,0,0,.29.2c.29,0,.58-.23.87-.68.07-.11.14-.16.22-.16s.17.07.17.22a1.8,1.8,0,0,1-.53.91,1.94,1.94,0,0,1-1.4.8c-.45,0-.68-.41-.68-1.24,0-.14,0-.34,0-.59l.2-2.82c0-.17,0-.32,0-.45,0-.92-.32-1.37-.94-1.37-.43,0-.82.3-1.16.92a6.76,6.76,0,0,0-.7,2.41l-.33,2.7a.55.55,0,0,1-.16.35.8.8,0,0,1-.45.09c-.29,0-.43-.1-.43-.28v-.16l.48-3.92a6.37,6.37,0,0,0,0-.8,1.51,1.51,0,0,0-.28-1,.94.94,0,0,0-.78-.36,1.56,1.56,0,0,0-1.25.89,5.16,5.16,0,0,0-.73,2.17l-.35,3a.5.5,0,0,1-.15.35.84.84,0,0,1-.46.09c-.29,0-.43-.1-.43-.29a.6.6,0,0,1,0-.16l.51-4.22a3.91,3.91,0,0,0,0-.45c0-.57-.12-.87-.38-.89s-.5.25-.73.79c-.05.14-.11.21-.16.2s-.15-.09-.15-.26a2.19,2.19,0,0,1,.5-1.26c.33-.45.64-.68.93-.68C181.58,163.48,181.82,164.08,181.82,165.27Z" transform="translate(-3.47 -109.75)"/><path class="cls-1" d="M192.79,167l.37-2.19a2.37,2.37,0,0,0,.05-.43c0-.24-.17-.35-.52-.35h-.48c-.26,0-.38-.06-.38-.18s.14-.21.38-.21a8.12,8.12,0,0,0,1.57-.15,2.16,2.16,0,0,1,.44-.05c.13,0,.19.07.19.21v.1l-.49,2.43a15.48,15.48,0,0,0-.37,2.75c0,.35.09.53.28.55s.52-.23.78-.74c.07-.13.14-.2.21-.2s.14.06.14.19a2.15,2.15,0,0,1-.68,1.25,1.74,1.74,0,0,1-1.15.69c-.18,0-.32-.13-.43-.39a2.66,2.66,0,0,1-.17-1A15.22,15.22,0,0,1,192.79,167Zm1.52-7.17c.05,0,.1.06.15.16s.15.29.17.32l.2.29a.36.36,0,0,1,.08.17c0,.06,0,.12-.13.21s-.29.31-.47.53-.14.14-.2.14-.13-.06-.18-.17a4,4,0,0,0-.33-.57.32.32,0,0,1-.08-.19.28.28,0,0,1,.09-.19l.24-.26a3.42,3.42,0,0,0,.24-.29A.33.33,0,0,1,194.31,159.86Z" transform="translate(-3.47 -109.75)"/><path class="cls-1" d="M200.84,164.9l-.52-.54a1.22,1.22,0,0,0-.89-.43,1.8,1.8,0,0,0-1.55,1,4.53,4.53,0,0,0-.62,2.47,2.94,2.94,0,0,0,.51,1.84,1.78,1.78,0,0,0,1.47.65,2.4,2.4,0,0,0,1.62-.61l.33-.28a.21.21,0,0,1,.15-.07c.07,0,.1,0,.1.1a1.27,1.27,0,0,1-.38.64,3.31,3.31,0,0,1-2.54,1.1,2.15,2.15,0,0,1-1.71-.71,3,3,0,0,1-.6-2,5.08,5.08,0,0,1,1.12-3.24,3.27,3.27,0,0,1,2.57-1.41,2.42,2.42,0,0,1,1.25.31c.36.21.54.45.54.73a.62.62,0,0,1-.16.43.47.47,0,0,1-.37.18A.43.43,0,0,1,200.84,164.9Z" transform="translate(-3.47 -109.75)"/><path class="cls-1" d="M213.13,159a3.78,3.78,0,0,0-3.38,1.65,6,6,0,0,0-.71,1.74,7.76,7.76,0,0,0-.3,2,6.81,6.81,0,0,0,1.23,4.13,4.22,4.22,0,0,0,3.62,1.77,2.4,2.4,0,0,0,2.65-1.74,9.23,9.23,0,0,0,.28-2.45,1.45,1.45,0,0,0-.17-.82,1.06,1.06,0,0,0-.69-.28l-.34,0c-.19,0-.28-.09-.27-.19s.12-.22.36-.22l1.72,0,1.36-.1c.16,0,.24.06.24.16s-.13.21-.38.27a.57.57,0,0,0-.38.24,1.83,1.83,0,0,0-.16.67l-.19,1.62a13.35,13.35,0,0,0-.09,1.44,2.66,2.66,0,0,0,0,.53,1.05,1.05,0,0,1,0,.18c0,.12-.08.19-.23.22a6.31,6.31,0,0,0-1,.31,8.09,8.09,0,0,1-3,.7,6.42,6.42,0,0,1-3.38-.9q-2.49-1.5-2.49-5.11a6.4,6.4,0,0,1,1.69-4.6,5.7,5.7,0,0,1,4.35-1.79,6.71,6.71,0,0,1,1.86.29,7.67,7.67,0,0,1,1.77.73.68.68,0,0,0,.28.11.33.33,0,0,0,.23-.11l.11-.13a.2.2,0,0,1,.14,0c.14,0,.2.09.2.28v.94l.1,1.4c0,.3,0,.45-.19.45s-.18-.09-.23-.28a3.77,3.77,0,0,0-1.65-2.23A5.18,5.18,0,0,0,213.13,159Z" transform="translate(-3.47 -109.75)"/><path class="cls-1" d="M222,165.27q1-1.8,2-1.8c.41,0,.62.14.62.42a.83.83,0,0,1-.06.27c0,.13-.06.21-.07.25l-.1.42c0,.19-.13.29-.27.29s-.14-.05-.19-.19c-.14-.33-.34-.5-.62-.5s-.51.3-.71.9a16,16,0,0,0-.54,2.86l-.25,2.06v.1c0,.23-.2.35-.55.35s-.47-.1-.47-.29a1,1,0,0,1,0-.16l.43-3.45a4.72,4.72,0,0,0,0-.7c0-.88-.2-1.31-.6-1.31a.63.63,0,0,0-.49.29,1.65,1.65,0,0,0-.28.72c0,.23-.1.34-.21.34s-.2-.14-.2-.42a2.44,2.44,0,0,1,.44-1.49,3,3,0,0,1,.52-.49.94.94,0,0,1,.5-.22C221.38,163.52,221.72,164.1,222,165.27Z" transform="translate(-3.47 -109.75)"/><path class="cls-1" d="M228.5,163.41a2.38,2.38,0,0,1,1.87.78,3,3,0,0,1,.7,2.09,5,5,0,0,1-1,3.17,3.13,3.13,0,0,1-2.52,1.31,2.26,2.26,0,0,1-1.82-.83,3.24,3.24,0,0,1-.7-2.16,5.26,5.26,0,0,1,.4-2,4.45,4.45,0,0,1,1.05-1.58A2.92,2.92,0,0,1,228.5,163.41Zm0,.43a2,2,0,0,0-1.69,1.13,5.45,5.45,0,0,0-.67,2.82c0,1.64.5,2.47,1.5,2.47.61,0,1.13-.41,1.57-1.21a6,6,0,0,0,.66-2.91C229.9,164.61,229.44,163.84,228.53,163.84Z" transform="translate(-3.47 -109.75)"/><path class="cls-1" d="M237.43,167.58a12.75,12.75,0,0,1-1.16,2c-.65.81-1.24,1.22-1.75,1.22-.27,0-.5-.21-.69-.64a3.68,3.68,0,0,1-.28-1.52v-.37c0-.11-.06-.17-.18-.17a1.06,1.06,0,0,1-.89-.46,1.86,1.86,0,0,1-.35-1.16,3.62,3.62,0,0,1,.63-2c.43-.66.86-1,1.29-1s.72.56.72,1.67a6.28,6.28,0,0,1,0,.7l-.17,1.54q0,.33,0,.63a3.55,3.55,0,0,0,.17,1.22c.11.32.25.48.43.48a1.29,1.29,0,0,0,.78-.49,5,5,0,0,0,.81-1.16,10.78,10.78,0,0,0,1-3.28l.12-.8c0-.28.15-.43.31-.44.43,0,.64.07.64.29a2,2,0,0,1,0,.23l-.08.49a22.77,22.77,0,0,0-.3,3.23,4.19,4.19,0,0,0,.22,1.44c.14.38.32.57.53.57a1.31,1.31,0,0,0,.78-.46,4.83,4.83,0,0,0,.83-1.08,5.74,5.74,0,0,0,.87-2.79,3.24,3.24,0,0,0-.22-1.14,1.07,1.07,0,0,1-.08-.29.48.48,0,0,1,.18-.36.61.61,0,0,1,.42-.16c.26,0,.39.27.39.8a7.82,7.82,0,0,1-.7,3.1,7,7,0,0,1-1.71,2.52,2.71,2.71,0,0,1-1.43.83c-.32,0-.58-.29-.76-.85A7.61,7.61,0,0,1,237.43,167.58Zm-3.93-2.76c-.17,0-.36.18-.56.6a2.63,2.63,0,0,0-.31,1.17,1.29,1.29,0,0,0,.17.68.49.49,0,0,0,.43.27.31.31,0,0,0,.31-.18,3.49,3.49,0,0,0,.12-.83l0-.42,0-.44a2.44,2.44,0,0,0,0-.27C233.73,165,233.66,164.85,233.5,164.82Z" transform="translate(-3.47 -109.75)"/><path class="cls-1" d="M245.48,164.59l-.45,3.56a4.33,4.33,0,0,0,0,.53,1.14,1.14,0,0,0,.21.7.64.64,0,0,0,.53.29,1.69,1.69,0,0,0,1.18-.66.46.46,0,0,1,.28-.17c.1,0,.14,0,.14.14,0,.32-.27.69-.81,1.1a2.56,2.56,0,0,1-1.46.62,1,1,0,0,1-.81-.47A2.14,2.14,0,0,1,244,169a8.25,8.25,0,0,1,.06-.87l.42-3.36a2.12,2.12,0,0,1,0-.33s0-.08,0-.11-.11-.19-.3-.19h-.5c-.13,0-.2-.06-.2-.16s.12-.24.37-.37a4.23,4.23,0,0,0,1.54-1.43c.09-.15.19-.23.29-.23s.2.06.2.17a.93.93,0,0,1,0,.24l-.09.34-.06.29-.06.23a.57.57,0,0,0,0,.12c0,.14.11.21.35.21h.08l1.21,0c.2,0,.3.08.3.23s-.15.39-.45.39l-1.05-.05h-.13a.47.47,0,0,0-.33.09A.89.89,0,0,0,245.48,164.59Z" transform="translate(-3.47 -109.75)"/><path class="cls-1" d="M250.23,165a3.6,3.6,0,0,1,2.51-1.56,1.24,1.24,0,0,1,1,.49,2.18,2.18,0,0,1,.38,1.34,4.8,4.8,0,0,1,0,.59l-.24,2.23a6.33,6.33,0,0,0-.05.76c0,.52.14.78.41.78s.76-.3,1.1-.9c.07-.12.15-.18.22-.18s.15,0,.15.16a2,2,0,0,1-.51,1.08,2,2,0,0,1-1.58.94c-.54,0-.8-.56-.8-1.68,0-.21,0-.46,0-.75l.17-2.45c0-.22,0-.39,0-.5,0-.68-.27-1-.8-1a2.09,2.09,0,0,0-1.46.63,2.86,2.86,0,0,0-.76,1.78l-.44,3.54v.1c0,.23-.21.35-.55.35s-.47-.1-.47-.28v-.16l1.32-10.78L250,159c0-.2-.15-.3-.49-.3H249c-.24,0-.36-.06-.35-.17s.12-.21.35-.21a12.51,12.51,0,0,0,1.46-.15,1.84,1.84,0,0,1,.4-.06c.12,0,.17.07.17.21s0,.06,0,.1Z" transform="translate(-3.47 -109.75)"/><path class="cls-2" d="M112.43,122.21a25.77,25.77,0,0,0-5.31.52,18.74,18.74,0,0,0-3.77,1.09,3.93,3.93,0,0,0-1.76,1.31,3.71,3.71,0,0,0-.48,2.1v22.22c0,.74.36,1.12,1.07,1.11h5.65a1,1,0,0,0,1.13-1.12V128.73a2.06,2.06,0,0,1,.74-1.68,3,3,0,0,1,2-.62,2,2,0,0,1,1.63.59,12.28,12.28,0,0,1,1,1.26,8.25,8.25,0,0,0,1.07,1.25,2.74,2.74,0,0,0,2,.58,2.94,2.94,0,0,0,2.32-.87,3.69,3.69,0,0,0,.77-2.49,3.86,3.86,0,0,0-1.84-3.23c-1.22-.86-3.25-1.31-6.08-1.31h0" transform="translate(-3.47 -109.75)"/><path class="cls-3" d="M39.2,122.83a16.69,16.69,0,0,0-3.78,1.11,4.33,4.33,0,0,0-1.69,1.25,3.72,3.72,0,0,0-.49,2.15v22.1c0,.74.36,1.12,1.07,1.12h5.58A1,1,0,0,0,41,149.44v-19.6a3.23,3.23,0,0,1,.92-2.56,4.46,4.46,0,0,1,2.9-.79,3.75,3.75,0,0,1,3,1.14,4.72,4.72,0,0,1,1,3.22v18.59a1,1,0,0,0,1.1,1.12h5.59a1,1,0,0,0,1.12-1.11V130.8a4.93,4.93,0,0,1,.88-3.13,3.39,3.39,0,0,1,2.94-1.18,3.73,3.73,0,0,1,3,1.14,4.82,4.82,0,0,1,1,3.22v18.59a1,1,0,0,0,1.11,1.12h5.58c.71,0,1.06-.38,1.06-1.12v-19a7.54,7.54,0,0,0-.87-3.77,8.07,8.07,0,0,0-2.26-2.52A9.45,9.45,0,0,0,66,122.77a14.22,14.22,0,0,0-3.37-.43,17.31,17.31,0,0,0-5.77.83,10.34,10.34,0,0,0-3.74,2.21,10.36,10.36,0,0,0-3.4-2.21,14.1,14.1,0,0,0-5.26-.83,25.69,25.69,0,0,0-5.21.49" transform="translate(-3.47 -109.75)"/><path class="cls-4" d="M133.66,114.83c-.12,0-.26.12-.4.18l-5.15,2.29a1.1,1.1,0,0,0-.59.57,2.67,2.67,0,0,0-.15,1v3.51h-2.6a1,1,0,0,0-1.12,1.11v2a1,1,0,0,0,1.12,1.12h2.61v15.89a9.15,9.15,0,0,0,.8,4.19,6.37,6.37,0,0,0,2,2.45,6.69,6.69,0,0,0,2.55,1.15,13.41,13.41,0,0,0,2.55.28,9.18,9.18,0,0,0,4-.74c1-.5,1.56-1.15,1.56-2s-.49-1.38-1.49-1.38l-.49,0a5,5,0,0,1-.57,0,3.3,3.3,0,0,1-2.15-.74c-.61-.49-.92-1.52-.92-3.08v-16.1h4.08a1,1,0,0,0,1.12-1.12v-2a1,1,0,0,0-1.12-1.11h-4.08v-6.49a1,1,0,0,0-1.07-1.11,1.06,1.06,0,0,0-.4.08" transform="translate(-3.47 -109.75)"/><path class="cls-5" d="M11.81,113a12.11,12.11,0,0,0-4.07,2.06,9.22,9.22,0,0,0-2.68,3.32,10.25,10.25,0,0,0-1,4.51,9,9,0,0,0,1.28,5,11.93,11.93,0,0,0,3.21,3.32,24.09,24.09,0,0,0,4.2,2.34c1.51.66,2.9,1.33,4.2,2A13,13,0,0,1,20.2,138a4.84,4.84,0,0,1,1.27,3.43,4.68,4.68,0,0,1-1.22,3.3A4.45,4.45,0,0,1,16.8,146a4.65,4.65,0,0,1-2.1-.45,5.33,5.33,0,0,1-1.58-1.17A7.9,7.9,0,0,1,12,142.86c-.31-.58-.58-1.1-.79-1.6a4.16,4.16,0,0,0-1.41-1.86,4,4,0,0,0-2.48-.74,4,4,0,0,0-2.7,1,3.27,3.27,0,0,0-1.11,2.65,6.7,6.7,0,0,0,.87,3.09,10,10,0,0,0,2.55,3A15.16,15.16,0,0,0,11,150.62a16,16,0,0,0,5.5.9,18,18,0,0,0,5.71-.83,12.42,12.42,0,0,0,4.25-2.28,9.73,9.73,0,0,0,2.64-3.48,10.73,10.73,0,0,0,.9-4.41,10,10,0,0,0-1.31-5.37,11.76,11.76,0,0,0-3.29-3.55,20.43,20.43,0,0,0-4.28-2.4c-1.52-.64-2.94-1.28-4.27-1.94a13.63,13.63,0,0,1-3.3-2.2,4.14,4.14,0,0,1-1.3-3.13,4.53,4.53,0,0,1,1.25-3.43,4.53,4.53,0,0,1,3.27-1.2,4.3,4.3,0,0,1,1.83.35,4.85,4.85,0,0,1,1.36.89,5.69,5.69,0,0,1,1,1.26q.39.67.72,1.38A4.79,4.79,0,0,0,23,123a3.49,3.49,0,0,0,2.24.71,4,4,0,0,0,2.66-.9,3.21,3.21,0,0,0,1.05-2.6,5.34,5.34,0,0,0-.68-2.41,8.16,8.16,0,0,0-2.18-2.58,12.58,12.58,0,0,0-3.77-2.06,16.44,16.44,0,0,0-5.48-.81,17.7,17.7,0,0,0-5,.68" transform="translate(-3.47 -109.75)"/><path class="cls-6" d="M227.81,122.86a19.61,19.61,0,0,0-3.76,1.08,4.11,4.11,0,0,0-1.74,1.3,3.79,3.79,0,0,0-.48,2.1v22.1c0,.74.35,1.12,1.07,1.12h5.63a1,1,0,0,0,1.11-1.11V128.83a2.06,2.06,0,0,1,.75-1.68,3,3,0,0,1,2-.61,2,2,0,0,1,1.62.59,13.33,13.33,0,0,1,1,1.25,7.66,7.66,0,0,0,1.06,1.24,2.73,2.73,0,0,0,1.94.58,3,3,0,0,0,2.32-.86,3.66,3.66,0,0,0,.76-2.48,3.85,3.85,0,0,0-1.83-3.22c-1.23-.86-3.25-1.3-6.09-1.3a25.62,25.62,0,0,0-5.28.52" transform="translate(-3.47 -109.75)"/><path class="cls-7" d="M245.34,109.91c-.72,0-1.06.39-1.06,1.13v38.4c0,.74.34,1.12,1.06,1.12H251a1,1,0,0,0,1.11-1.12V111a1,1,0,0,0-1.11-1.13Z" transform="translate(-3.47 -109.75)"/><path class="cls-8" d="M179.1,122.2a1.27,1.27,0,0,0-1.44,1l-3.35,14.42c-.19.77-.34,1.61-.47,2.51s-.23,1.61-.31,2.15-.1.83-.1.91h-.12c0-.08-.06-.38-.16-.91s-.26-1.25-.44-2.15-.39-1.74-.61-2.51L168,123.3a1.62,1.62,0,0,0-.46-.86,1.53,1.53,0,0,0-1-.24H163a1.38,1.38,0,0,0-1.43,1.1l-4.3,14.36c-.22.77-.43,1.61-.63,2.51s-.36,1.61-.47,2.15a8,8,0,0,0-.16.91h-.12c0-.08,0-.38-.07-.91s-.16-1.25-.29-2.15-.28-1.74-.46-2.51l-3.25-14.42a1.26,1.26,0,0,0-1.43-1h-5.62a1,1,0,0,0-1.14,1.16,2.74,2.74,0,0,0,.15.87l7.38,25.38a1.5,1.5,0,0,0,.5.85,1.61,1.61,0,0,0,1,.25h5.23a1.3,1.3,0,0,0,1.49-1.1l3.46-11.45c.26-.85.49-1.75.72-2.71s.38-1.69.47-2.24.13-.87.13-.93h.11c0,.06.05.37.14.93s.24,1.29.44,2.24.43,1.86.69,2.71L169,149.61a1.39,1.39,0,0,0,1.43,1.1h5.28a1.5,1.5,0,0,0,1-.25,1.59,1.59,0,0,0,.46-.85l7.38-25.38a2.83,2.83,0,0,0,.17-.87c0-.77-.37-1.16-1.1-1.16Z" transform="translate(-3.47 -109.75)"/><path class="cls-9" d="M203.2,119.94a15.87,15.87,0,0,1,9.2,3,16.16,16.16,0,0,1,5.87,7.91c.4,1.21.68,2.72-1.2,3.65s-3.43.46-4.88-1.9-2-3.26-3.67-4.4a8.9,8.9,0,0,0-10.65,0c-1.65,1.14-2.24,2.06-3.68,4.4s-3.32,2.93-5,2-1.45-2.54-1-3.75a16.1,16.1,0,0,1,5.87-7.91,15.88,15.88,0,0,1,9.21-3" transform="translate(-3.47 -109.75)"/><path class="cls-10" d="M203.2,152.73a16.07,16.07,0,0,0,15.07-10.92c.4-1.21.69-2.72-1.19-3.64s-3.44-.47-4.88,1.89-2,3.28-3.68,4.41a8.94,8.94,0,0,1-10.65,0c-1.65-1.13-2.23-2.06-3.68-4.41s-3.31-2.93-5-2-1.46,2.53-1,3.74a16.07,16.07,0,0,0,15.08,10.92" transform="translate(-3.47 -109.75)"/><path class="cls-11" d="M97.1,126.88a7.44,7.44,0,0,0-2-2.59,8.54,8.54,0,0,0-3-1.54,13.17,13.17,0,0,0-3.72-.51,18.18,18.18,0,0,0-5.41.7,12.52,12.52,0,0,0-3.63,1.69,7,7,0,0,0-2.06,2.18,4.56,4.56,0,0,0-.64,2.12,2.68,2.68,0,0,0,1,2.24,3.55,3.55,0,0,0,2.31.78,3.83,3.83,0,0,0,2.16-.61,3,3,0,0,0,1.22-1.62,6,6,0,0,1,.49-1.2,5.62,5.62,0,0,1,.84-1.13,3.55,3.55,0,0,1,2.72-1.17,3.05,3.05,0,0,1,2.31,1,3.69,3.69,0,0,1,.91,2.65v3.5q-2.43.48-5.09,1.09a20.87,20.87,0,0,0-4.85,1.71,11.28,11.28,0,0,0-3.67,2.9,6.86,6.86,0,0,0-1.46,4.48,6,6,0,0,0,1,3.57,7.22,7.22,0,0,0,2.67,2.34,13.63,13.63,0,0,0,3.79,1.27,24.63,24.63,0,0,0,4.42.4,22.53,22.53,0,0,0,2.6-.14,19,19,0,0,0,2.44-.37,15.19,15.19,0,0,0,2.06-.56,7.06,7.06,0,0,0,1.38-.63,4,4,0,0,0,1.6-1.69,6.58,6.58,0,0,0,.42-2.65V130.57A8.3,8.3,0,0,0,97.1,126.88Zm-6.58,17.57a2.13,2.13,0,0,1-1,2.05,4.89,4.89,0,0,1-2.34.54h0a4.3,4.3,0,0,1-3.27-1.18,4.18,4.18,0,0,1-1.14-3,4.87,4.87,0,0,1,.65-2.62,5.52,5.52,0,0,1,1.75-1.75,8.32,8.32,0,0,1,2.49-1.11c.93-.27,1.9-.51,2.9-.72Z" transform="translate(-3.47 -109.75)"/><path class="cls-12" d="M278.9,109.75h-5.52c-.69,0-1,.39-1,1.11v12.48a11.87,11.87,0,0,0-1.76-.79,8.77,8.77,0,0,0-3.07-.47,11.09,11.09,0,0,0-5.28,1.22,11.91,11.91,0,0,0-3.82,3.31,14.26,14.26,0,0,0-2.31,4.78,20.31,20.31,0,0,0-.76,5.58,18,18,0,0,0,.76,5.35,11.52,11.52,0,0,0,2.41,4.3,11.19,11.19,0,0,0,4.28,2.88,17,17,0,0,0,6.4,1.05,23.77,23.77,0,0,0,2.64-.15,22.62,22.62,0,0,0,2.53-.42,18.89,18.89,0,0,0,2.12-.58,6.49,6.49,0,0,0,1.46-.68,4.5,4.5,0,0,0,1.6-1.6,5.17,5.17,0,0,0,.45-2.38V110.86A1,1,0,0,0,278.9,109.75Zm-6.55,33.88c0,1.58-1.06,2.35-3.15,2.35a4.48,4.48,0,0,1-2.26-.62A5.89,5.89,0,0,1,265,143.5a10.65,10.65,0,0,1-1.36-3.09,16.06,16.06,0,0,1-.53-4.32,13.9,13.9,0,0,1,1.65-7.4,5,5,0,0,1,4.33-2.63,5.11,5.11,0,0,1,2,.32,6.54,6.54,0,0,1,1.3.68Z" transform="translate(-3.47 -109.75)"/></svg>